<svg width="507" height="108" viewBox="0 0 507 108" fill="none" xmlns="http://www.w3.org/2000/svg">
<path d="M170.856 88.96C160.104 88.96 149.352 84.736 141.384 77.248L148.872 68.032C156.552 74.944 163.56 78.016 171.72 78.016C180.552 78.016 186.216 74.368 186.216 68.8C186.216 63.808 182.856 61.408 174.408 59.968L161.736 57.76C149.928 55.744 143.976 49.696 143.976 39.904C143.976 27.616 153.96 19.84 169.896 19.84C179.688 19.84 189.96 23.296 197.448 29.248L190.536 38.848C183.336 33.28 176.424 30.688 169.128 30.688C161.256 30.688 156.168 33.952 156.168 38.944C156.168 43.456 159.048 45.664 166.344 46.816L178.536 48.832C192.264 51.04 198.888 57.28 198.888 67.648C198.888 80.608 187.848 88.96 170.856 88.96Z" fill="white"/>
<path d="M207.43 88V20.8H220.294V51.136L250.438 20.8H266.278L233.062 52.96L267.622 88H250.342L220.294 56.608V88H207.43Z" fill="white"/>
<path d="M268.587 88L296.331 20.8H311.211L338.571 88H324.651L317.547 69.856H289.131L282.027 88H268.587ZM293.163 59.392H313.611L303.435 33.28L293.163 59.392Z" fill="white"/>
<path d="M344.586 88V20.8H361.194L380.298 58.912L399.402 20.8H416.106V88H403.914V37.024L380.202 83.2L356.394 36.928V88H344.586Z" fill="white"/>
<path d="M428 88.28C426.68 88.28 425.64 87.2 425.64 85.92C425.64 84.6 426.68 83.52 428 83.52C429.32 83.52 430.36 84.6 430.36 85.92C430.36 87.2 429.32 88.28 428 88.28Z" fill="white"/>
<path d="M443.786 88.36C437.946 88.36 433.386 83.76 433.386 77.84C433.386 71.96 437.946 67.32 443.786 67.32C446.826 67.32 449.746 68.56 451.866 70.64L449.546 73.2C447.986 71.52 445.946 70.64 443.866 70.64C439.986 70.64 437.026 73.8 437.026 77.84C437.026 81.96 440.026 85.12 443.906 85.12C445.986 85.12 447.866 84.28 449.506 82.64L451.746 85.04C449.626 87.16 446.786 88.36 443.786 88.36Z" fill="white"/>
<path d="M455.009 88V60L458.689 59.24V88H455.009Z" fill="white"/>
<path d="M471.286 88.4C466.646 88.4 463.406 85.16 463.406 80.48V67.72H467.046V79.84C467.046 83.16 469.086 85.2 472.286 85.2C474.526 85.2 476.326 84.2 477.446 82.36V67.72H481.126V88H477.446V85.84C475.886 87.52 473.806 88.4 471.286 88.4Z" fill="white"/>
<path d="M485.908 88V60L489.588 59.24V69.72C491.268 68.2 493.428 67.44 495.868 67.44C501.628 67.44 506.068 72 506.068 77.84C506.068 83.76 501.588 88.32 495.788 88.32C493.508 88.32 491.308 87.52 489.548 86.16V88H485.908ZM495.428 85.12C499.428 85.12 502.468 82 502.468 77.88C502.468 73.76 499.388 70.6 495.428 70.6C493.028 70.6 490.948 71.56 489.588 73.2V82.6C490.948 84.2 493.068 85.12 495.428 85.12Z" fill="white"/>
<path d="M56.7046 0C56.7046 0 63.2351 59.625 83.2903 59.625C103.345 59.625 141 10.5672 141 10.5672L78.1144 108C78.1144 108 72.2395 50.1136 53.2075 50.1136C34.1756 50.1136 0 95.4627 0 95.4627L56.7046 0Z" fill="white"/>
</svg>
